# xmcd
#
# Track frame offsets: 
#        150
#        13237
#        25225
#        42787
#        54900
#        69975
#        81900
#        93112
#        100875
#        112987
#        126300
#        139912
#        152287
#        165562
#        176775
#
# Disc length: 2475 seconds
#
# Revision: 2
# Processed by: cddbd v1.5.2PL0 Copyright (c) Steve Scherf et al.
# Submitted via: ExactAudioCopy v1.0b3
#
DISCID=b809a90f
DTITLE=Brother Oswald (Pete Kirby) - Brother Oswald
DYEAR=1995
DGENRE=Country
TTITLE0=End of the World
TTITLE1=Island March
TTITLE2=Sailing Along the Highway
TTITLE3=Kansas City Kitty
TTITLE4=Blue Eyes Crying in the Rain
TTITLE5=Farewell Blues
TTITLE6=Echo Chimes
TTITLE7=Wabash Cannonball (Tut)
TTITLE8=Prairie Queen
TTITLE9=Tennessee Waltz
TTITLE10=Song of the Islands
TTITLE11=Dobro Chimes
TTITLE12=I'll Be All Smiles Tonight
TTITLE13=Two Different Worlds
TTITLE14=Carry Me Back to the Mountains
EXTD=
EXTT0=
EXTT1=
EXTT2=
EXTT3=
EXTT4=
EXTT5=
EXTT6=
EXTT7=
EXTT8=
EXTT9=
EXTT10=
EXTT11=
EXTT12=
EXTT13=
EXTT14=
PLAYORDER=
